***************************************************************
A Good Day to Die Hard 2013 Extended Cut 1080p x264 - alrmothe
***************************************************************

Title : A Good Day to Die Hard
YEAR: 2013
GENRE : Action | Crime | Thriller       
imdb URL http://www.imdb.com/title/tt1606378/
Overall bit rate: 9242 kbps
Format version: Version 4 / Version 2
File size:  6.53 GiB
Duration:  1h 41mn
Sub:Arabic,English SDH,English,Spanish
sample:Yes
***************************************************************

Video
Format: Matroska
Format : AVC 
Format/Info : Advanced Video Codec 
Format profile : High@L4.1 
Format settings, CABAC : Yes 
Format settings, ReFrames : 4 frames  
Codec ID : V_MPEG4/ISO/AVC  
Bit rate : 8589 kbps 
Width : 1920 pixels 
Height : 1040 pixels 
Display aspect ratio : 1:85:1 
Frame rate : 23.976 fps 
Color space : YUV 
Chroma subsampling : 4:2:0 
Bit depth : 8 bits 
Scan type : Progressive 
Bits/(Pixel*Frame) : 0.179 
Stream size: 5.95 GiB 


Audio 
Format: Ac3
Bit rate :640 Kbps
Channel(s) : 6 channels
Channel positions:Front: L C R, Side: L R, LFE
Sampling rate: 48.0 KHz
Bit depth: 16 bits
Compression mode: Lossy
Stream size: 463 GiB
Language : English

***************************************************************


Screenshots 
http://img708.imageshack.us/img708/6711/vlcsnap2013052618h56m02.png 
http://img705.imageshack.us/img705/1012/vlcsnap2013052618h53m42.png 
http://img600.imageshack.us/img600/3223/vlcsnap2013052618h53m59.png 
http://img853.imageshack.us/img853/8641/vlcsnap2013052618h54m36.png



Use KMPlayer for the best quality
